<mxfile host="app.diagrams.net" modified="2023-10-29T08:18:39.786Z" agent="Mozilla/5.0 (X11; Linux x86_64) AppleWebKit/537.36 (KHTML, like Gecko) Chrome/117.0.0.0 Safari/537.36" etag="9lu7Wp96wmCQVHEbHsyv" version="21.7.2" type="device">
  <diagram name="Page-1" id="a5XNr4Fz-CVnHWNftbhP">
    <mxGraphModel dx="1558" dy="877" grid="1" gridSize="10" guides="1" tooltips="1" connect="1" arrows="1" fold="1" page="1" pageScale="1" pageWidth="850" pageHeight="1100" math="0" shadow="0">
      <root>
        <mxCell id="0" />
        <mxCell id="1" parent="0" />
        <mxCell id="4iVI-0L4xFTscGGTbax2-10" style="edgeStyle=orthogonalEdgeStyle;rounded=0;orthogonalLoop=1;jettySize=auto;html=1;" edge="1" parent="1" source="4iVI-0L4xFTscGGTbax2-1" target="4iVI-0L4xFTscGGTbax2-7">
          <mxGeometry relative="1" as="geometry">
            <Array as="points">
              <mxPoint x="349" y="190" />
            </Array>
          </mxGeometry>
        </mxCell>
        <mxCell id="4iVI-0L4xFTscGGTbax2-1" value="Incomming" style="shape=cylinder3;whiteSpace=wrap;html=1;boundedLbl=1;backgroundOutline=1;size=15;fillColor=#d5e8d4;strokeColor=#82b366;" vertex="1" parent="1">
          <mxGeometry x="580" y="120" width="60" height="80" as="geometry" />
        </mxCell>
        <mxCell id="4iVI-0L4xFTscGGTbax2-2" value="Public" style="shape=cylinder3;whiteSpace=wrap;html=1;boundedLbl=1;backgroundOutline=1;size=15;fillColor=#dae8fc;strokeColor=#6c8ebf;" vertex="1" parent="1">
          <mxGeometry x="580" y="230" width="60" height="80" as="geometry" />
        </mxCell>
        <mxCell id="4iVI-0L4xFTscGGTbax2-3" value="Private" style="shape=cylinder3;whiteSpace=wrap;html=1;boundedLbl=1;backgroundOutline=1;size=15;fillColor=#f8cecc;strokeColor=#b85450;" vertex="1" parent="1">
          <mxGeometry x="580" y="350" width="60" height="80" as="geometry" />
        </mxCell>
        <mxCell id="4iVI-0L4xFTscGGTbax2-5" style="edgeStyle=orthogonalEdgeStyle;rounded=0;orthogonalLoop=1;jettySize=auto;html=1;entryX=0;entryY=0.5;entryDx=0;entryDy=0;entryPerimeter=0;" edge="1" parent="1" source="4iVI-0L4xFTscGGTbax2-4" target="4iVI-0L4xFTscGGTbax2-1">
          <mxGeometry relative="1" as="geometry" />
        </mxCell>
        <mxCell id="4iVI-0L4xFTscGGTbax2-6" value="Upload map to incomming bucket" style="edgeLabel;html=1;align=center;verticalAlign=middle;resizable=0;points=[];" vertex="1" connectable="0" parent="4iVI-0L4xFTscGGTbax2-5">
          <mxGeometry x="0.0098" relative="1" as="geometry">
            <mxPoint as="offset" />
          </mxGeometry>
        </mxCell>
        <mxCell id="4iVI-0L4xFTscGGTbax2-13" style="edgeStyle=orthogonalEdgeStyle;rounded=0;orthogonalLoop=1;jettySize=auto;html=1;" edge="1" parent="1" source="4iVI-0L4xFTscGGTbax2-4" target="4iVI-0L4xFTscGGTbax2-12">
          <mxGeometry relative="1" as="geometry" />
        </mxCell>
        <mxCell id="4iVI-0L4xFTscGGTbax2-4" value="Client" style="shape=umlActor;verticalLabelPosition=bottom;verticalAlign=top;html=1;outlineConnect=0;" vertex="1" parent="1">
          <mxGeometry x="70" y="50" width="30" height="60" as="geometry" />
        </mxCell>
        <mxCell id="4iVI-0L4xFTscGGTbax2-8" style="edgeStyle=orthogonalEdgeStyle;rounded=0;orthogonalLoop=1;jettySize=auto;html=1;" edge="1" parent="1" source="4iVI-0L4xFTscGGTbax2-7">
          <mxGeometry relative="1" as="geometry">
            <mxPoint x="570" y="269" as="targetPoint" />
          </mxGeometry>
        </mxCell>
        <mxCell id="4iVI-0L4xFTscGGTbax2-9" style="edgeStyle=orthogonalEdgeStyle;rounded=0;orthogonalLoop=1;jettySize=auto;html=1;entryX=0;entryY=0.5;entryDx=0;entryDy=0;entryPerimeter=0;" edge="1" parent="1" source="4iVI-0L4xFTscGGTbax2-7" target="4iVI-0L4xFTscGGTbax2-3">
          <mxGeometry relative="1" as="geometry" />
        </mxCell>
        <mxCell id="4iVI-0L4xFTscGGTbax2-7" value="Map-maker" style="sketch=0;points=[[0,0,0],[0.25,0,0],[0.5,0,0],[0.75,0,0],[1,0,0],[0,1,0],[0.25,1,0],[0.5,1,0],[0.75,1,0],[1,1,0],[0,0.25,0],[0,0.5,0],[0,0.75,0],[1,0.25,0],[1,0.5,0],[1,0.75,0]];outlineConnect=0;fontColor=#232F3E;gradientColor=#F78E04;gradientDirection=north;fillColor=#D05C17;strokeColor=#ffffff;dashed=0;verticalLabelPosition=bottom;verticalAlign=top;align=center;html=1;fontSize=12;fontStyle=0;aspect=fixed;shape=mxgraph.aws4.resourceIcon;resIcon=mxgraph.aws4.nice_dcv;" vertex="1" parent="1">
          <mxGeometry x="310" y="230" width="78" height="78" as="geometry" />
        </mxCell>
        <mxCell id="4iVI-0L4xFTscGGTbax2-14" style="edgeStyle=orthogonalEdgeStyle;rounded=0;orthogonalLoop=1;jettySize=auto;html=1;" edge="1" parent="1" source="4iVI-0L4xFTscGGTbax2-12">
          <mxGeometry relative="1" as="geometry">
            <mxPoint x="300" y="269" as="targetPoint" />
          </mxGeometry>
        </mxCell>
        <mxCell id="4iVI-0L4xFTscGGTbax2-12" value="Api&lt;br&gt;" style="sketch=0;outlineConnect=0;fontColor=#232F3E;gradientColor=none;fillColor=#2E27AD;strokeColor=none;dashed=0;verticalLabelPosition=bottom;verticalAlign=top;align=center;html=1;fontSize=12;fontStyle=0;aspect=fixed;pointerEvents=1;shape=mxgraph.aws4.rds_multi_az;" vertex="1" parent="1">
          <mxGeometry x="90" y="240" width="78" height="58" as="geometry" />
        </mxCell>
      </root>
    </mxGraphModel>
  </diagram>
</mxfile>
